<?xml version="1.0" standalone="no"?><!DOCTYPE svg PUBLIC "-//W3C//DTD SVG 1.1//EN" "http://www.w3.org/Graphics/SVG/1.1/DTD/svg11.dtd"><svg t="1766068129871" class="icon" viewBox="0 0 1024 1024" version="1.1" xmlns="http://www.w3.org/2000/svg" p-id="1336" xmlns:xlink="http://www.w3.org/1999/xlink" width="200" height="200"><path d="M816.5 842.164H206.892c-28.096 0-50.841 22.744-50.841 50.84 0 28.097 22.745 50.842 50.841 50.842H816.5c28.096 0 50.841-22.745 50.841-50.841 0-28.097-22.745-50.841-50.841-50.841z m-71.883-403.69h-29.8c-28.096 0-50.84-22.744-50.84-50.84v-276.1c0-28.096-22.745-50.84-50.842-50.84H410.014c-28.097 0-50.842 22.744-50.842 50.84v276.221c0 28.097-22.744 50.842-50.84 50.842h-29.8c-45.246 0-67.87 54.733-35.88 86.721l233.042 233.043c9.973 9.973 22.866 14.839 35.88 14.839s26.029-4.987 35.881-14.84l233.042-233.042c32.11-32.11 9.488-86.843-35.88-86.843z" fill="#F5222D" p-id="1337"></path></svg>